<?xml version="1.0" encoding="UTF-8" standalone="no"?>
<!-- Created with Inkscape (http://www.inkscape.org/) -->

<svg
   xmlns:dc="http://purl.org/dc/elements/1.1/"
   xmlns:cc="http://creativecommons.org/ns#"
   xmlns:rdf="http://www.w3.org/1999/02/22-rdf-syntax-ns#"
   xmlns:svg="http://www.w3.org/2000/svg"
   xmlns="http://www.w3.org/2000/svg"
   xmlns:xlink="http://www.w3.org/1999/xlink"
   xmlns:sodipodi="http://sodipodi.sourceforge.net/DTD/sodipodi-0.dtd"
   xmlns:inkscape="http://www.inkscape.org/namespaces/inkscape"
   width="512"
   height="384"
   id="svg2"
   version="1.1"
   inkscape:version="0.48.0 r9654"
   sodipodi:docname="ver2.svg"
   inkscape:export-filename="/home/artik/logo.png"
   inkscape:export-xdpi="28.120001"
   inkscape:export-ydpi="28.120001">
  <defs
     id="defs4">
    <linearGradient
       id="linearGradient3864">
      <stop
         id="stop3866"
         offset="0"
         style="stop-color:#51ad00;stop-opacity:1;" />
      <stop
         id="stop3868"
         offset="1"
         style="stop-color:#ffffff;stop-opacity:1" />
    </linearGradient>
    <linearGradient
       inkscape:collect="always"
       id="linearGradient3843">
      <stop
         style="stop-color:#7b3c00;stop-opacity:1;"
         offset="0"
         id="stop3845" />
      <stop
         style="stop-color:#ffffff;stop-opacity:1"
         offset="1"
         id="stop3847" />
    </linearGradient>
    <linearGradient
       inkscape:collect="always"
       id="linearGradient3903">
      <stop
         style="stop-color:#51ad00;stop-opacity:1;"
         offset="0"
         id="stop3905" />
      <stop
         style="stop-color:#ffffff;stop-opacity:1"
         offset="1"
         id="stop3907" />
    </linearGradient>
    <linearGradient
       id="linearGradient3868">
      <stop
         style="stop-color:#51ad00;stop-opacity:1;"
         offset="0"
         id="stop3870" />
      <stop
         style="stop-color:#51ad00;stop-opacity:0;"
         offset="1"
         id="stop3872" />
    </linearGradient>
    <linearGradient
       inkscape:collect="always"
       xlink:href="#linearGradient3868"
       id="linearGradient3874"
       x1="167.71387"
       y1="457.93347"
       x2="388.94012"
       y2="457.93347"
       gradientUnits="userSpaceOnUse" />
    <linearGradient
       inkscape:collect="always"
       xlink:href="#linearGradient3868"
       id="linearGradient3880"
       x1="167.71387"
       y1="457.60077"
       x2="388.94012"
       y2="457.60077"
       gradientUnits="userSpaceOnUse" />
    <linearGradient
       inkscape:collect="always"
       xlink:href="#linearGradient3864"
       id="linearGradient3899"
       gradientUnits="userSpaceOnUse"
       x1="174.14244"
       y1="490.45792"
       x2="342.07318"
       y2="404.54419"
       gradientTransform="matrix(1.5210152,0,0,1.5875624,-104.89266,154.05104)" />
    <linearGradient
       inkscape:collect="always"
       xlink:href="#linearGradient3903"
       id="linearGradient3909"
       x1="388.94971"
       y1="392.45636"
       x2="182.99617"
       y2="499.55252"
       gradientUnits="userSpaceOnUse"
       gradientTransform="matrix(1.5210152,0,0,1.5875624,-104.89266,154.05104)" />
    <linearGradient
       inkscape:collect="always"
       xlink:href="#linearGradient3843"
       id="linearGradient3851"
       x1="110.13774"
       y1="454.31769"
       x2="535.10406"
       y2="391.18317"
       gradientUnits="userSpaceOnUse"
       gradientTransform="matrix(1.1084032,0,0,1.2271125,-30.89557,312.2339)" />
    <filter
       color-interpolation-filters="sRGB"
       id="filter3963"
       inkscape:label="Drop shadow"
       width="1.5"
       height="1.5"
       x="-0.25"
       y="-0.25">
      <feGaussianBlur
         id="feGaussianBlur3965"
         in="SourceAlpha"
         stdDeviation="2"
         result="blur" />
      <feColorMatrix
         id="feColorMatrix3967"
         result="bluralpha"
         type="matrix"
         values="1 0 0 0 0 0 1 0 0 0 0 0 1 0 0 0 0 0 0.5 0 " />
      <feOffset
         id="feOffset3969"
         in="bluralpha"
         dx="10"
         dy="10"
         result="offsetBlur" />
      <feMerge
         id="feMerge3971">
        <feMergeNode
           id="feMergeNode3973"
           in="offsetBlur" />
        <feMergeNode
           id="feMergeNode3975"
           in="SourceGraphic" />
      </feMerge>
    </filter>
    <linearGradient
       y2="52.741264"
       y1="197.57022"
       xlink:href="#linearGradient2641"
       x2="172.36243"
       x1="263.11139"
       spreadMethod="pad"
       inkscape:collect="always"
       id="linearGradient2647"
       gradientUnits="userSpaceOnUse"
       gradientTransform="scale(0.969407,1.031558)" />
    <linearGradient
       inkscape:collect="always"
       id="linearGradient2641">
      <stop
         style="stop-color:#570f78;stop-opacity:1;"
         offset="0"
         id="stop2643" />
      <stop
         style="stop-color:#570f78;stop-opacity:0;"
         offset="1"
         id="stop2645" />
    </linearGradient>
    <linearGradient
       y2="78.977974"
       y1="180.37715"
       xlink:href="#linearGradient2601"
       x2="112.26501"
       x1="203.33453"
       inkscape:collect="always"
       id="linearGradient2607"
       gradientUnits="userSpaceOnUse"
       gradientTransform="scale(1.074879,0.930338)" />
    <linearGradient
       id="linearGradient2601">
      <stop
         style="stop-color:#570f78;stop-opacity:1.0000000;"
         offset="0.00000000"
         id="stop2603" />
      <stop
         style="stop-color:#000000;stop-opacity:0;"
         offset="1"
         id="stop2605" />
    </linearGradient>
  </defs>
  <sodipodi:namedview
     id="base"
     pagecolor="#ffffff"
     bordercolor="#666666"
     borderopacity="1.0"
     inkscape:pageopacity="0.0"
     inkscape:pageshadow="2"
     inkscape:zoom="1.4"
     inkscape:cx="262.39248"
     inkscape:cy="223.38451"
     inkscape:document-units="px"
     inkscape:current-layer="layer1"
     showgrid="false"
     inkscape:window-width="1366"
     inkscape:window-height="716"
     inkscape:window-x="0"
     inkscape:window-y="25"
     inkscape:window-maximized="1">
    <sodipodi:guide
       position="0,0"
       orientation="0,744.09448"
       id="guide3075" />
    <sodipodi:guide
       position="744.09448,0"
       orientation="-1052.3622,0"
       id="guide3077" />
    <sodipodi:guide
       position="744.09448,1052.3622"
       orientation="0,-744.09448"
       id="guide3079" />
    <sodipodi:guide
       position="0,1052.3622"
       orientation="1052.3622,0"
       id="guide3081" />
  </sodipodi:namedview>
  <metadata
     id="metadata7">
    <rdf:RDF>
      <cc:Work
         rdf:about="">
        <dc:format>image/svg+xml</dc:format>
        <dc:type
           rdf:resource="http://purl.org/dc/dcmitype/StillImage" />
        <dc:title></dc:title>
      </cc:Work>
    </rdf:RDF>
  </metadata>
  <g
     inkscape:label="Layer 1"
     inkscape:groupmode="layer"
     id="layer1"
     transform="translate(0,-668.36218)">
    <path
       style="fill:url(#linearGradient3851);fill-opacity:1;stroke:#000000;stroke-width:0;stroke-linecap:butt;stroke-linejoin:miter;stroke-miterlimit:4;stroke-opacity:1;stroke-dasharray:none"
       d="M 22.820467,918.53388 C 61.092726,904.21255 132.57639,866.50792 164.96073,850.7495 c 1.32467,3.96024 -0.0853,0.17497 2.92282,7.83548 -18.72057,8.51482 -110.903284,67.43597 -134.508339,72.89494 -10.524363,2.43389 -12.304095,-2.37679 -10.554744,-12.94604 z"
       id="path2985"
       inkscape:connector-curvature="0"
       sodipodi:nodetypes="cccsc" />
    <path
       style="fill:url(#linearGradient3899);fill-opacity:1;fill-rule:evenodd;stroke:#007900;stroke-width:0;stroke-linecap:butt;stroke-linejoin:miter;stroke-miterlimit:4;stroke-opacity:1;stroke-dasharray:none"
       d="m 238.16212,738.05468 c -21.44781,-12.09908 -21.29657,-13.57856 -50.61001,-27.07922 -46.45694,-21.39634 -84.11328,47.81863 -74.67809,95.36926 11.31311,57.01472 46.46775,118.70119 73.51124,148.55265 53.39981,58.94513 155.71081,64.11683 195.77908,94.46483 C 358.19607,912.24879 300.06026,790.81601 238.16212,738.05468 z"
       id="path3755"
       inkscape:connector-curvature="0"
       sodipodi:nodetypes="cssscc" />
    <path
       style="fill:url(#linearGradient3909);fill-opacity:1;fill-rule:nonzero;stroke:#000000;stroke-width:0;stroke-linecap:butt;stroke-linejoin:miter;stroke-miterlimit:4;stroke-opacity:1;stroke-dasharray:none"
       d="m 238.50556,738.04731 c 49.93488,-44.903 103.16599,-57.51091 155.18218,-27.26252 52.0162,30.24838 75.77917,65.43756 86.99626,124.18093 11.2171,58.74336 -5.22348,118.71284 -38.59784,157.91718 -33.37437,39.2049 -52.04748,45.2535 -59.72978,56.4793 C 355.48605,940.8089 322.24477,824.44866 238.50556,738.04731 z"
       id="path3901"
       inkscape:connector-curvature="0"
       sodipodi:nodetypes="czzzcc" />
    <g
       style="font-size:100px;font-style:normal;font-weight:normal;line-height:125%;letter-spacing:0px;word-spacing:0px;fill:#ffffff;fill-opacity:1;stroke:#000000;stroke-width:4;stroke-miterlimit:4;stroke-opacity:1;stroke-dasharray:none;filter:url(#filter3963);font-family:Sans"
       id="text3133"
       transform="matrix(0.81835176,0,0,0.908823,55.746208,669.10082)">
      <g
         style="font-size:144px;stroke:none;font-family:Sans"
         id="text3097">
        <path
           d="m 69.01364,133.40812 c -4.492244,1.59506 -8.805391,2.79948 -12.939453,3.61328 -4.134159,0.81381 -8.056681,1.22071 -11.767579,1.22071 -9.798203,0 -17.626971,-2.68555 -23.486328,-8.05664 -5.859381,-5.37108 -8.789066,-12.48371 -8.789062,-21.33789 -4e-6,-5.82679 0.92773,-11.311806 2.783203,-16.455076 1.85546,-5.17573 4.589833,-9.895781 8.203125,-14.160158 4.264304,-5.012957 9.391252,-8.870375 15.380859,-11.572266 6.0221,-2.70175 12.499958,-4.05266 19.433594,-4.052734 3.775989,7.4e-5 7.568302,0.455803 11.376953,1.367188 3.808529,0.878978 7.682223,2.229888 11.621094,4.052734 l -3.027344,15.087891 c -3.125066,-2.376246 -6.266339,-4.117781 -9.423828,-5.22461 -3.157609,-1.106711 -6.543022,-1.660095 -10.15625,-1.660156 -7.519573,6.1e-5 -13.818395,2.897193 -18.896484,8.691411 -5.078151,5.79431 -7.617211,13.03714 -7.617188,21.728506 -2.3e-5,5.59898 1.562475,9.99351 4.6875,13.18359 3.124969,3.19012 7.438116,4.78517 12.939453,4.78516 3.287717,10e-6 6.770786,-0.58592 10.449219,-1.75781 3.710882,-1.20441 7.861269,-3.07616 12.451172,-5.61524 l -3.222656,16.16211"
           style="font-size:100px;font-style:italic;font-weight:bold;stroke:#000000;stroke-width:4;stroke-miterlimit:4;stroke-opacity:1;stroke-dasharray:none"
           id="path3103"
           inkscape:connector-curvature="0" />
        <path
           d="m 104.07223,128.91594 -5.615228,28.71093 -17.578128,0 14.697268,-75.488274 17.578118,0 -1.61133,8.007808 c 2.66924,-3.19005 5.46872,-5.5338 8.39844,-7.031245 2.92965,-1.529893 6.13603,-2.294866 9.61914,-2.294922 6.15229,5.6e-5 11.01882,1.953179 14.59961,5.859377 3.58067,3.90629 5.37103,9.22855 5.3711,15.966786 -7e-5,4.19925 -0.63484,8.28454 -1.9043,12.25586 -1.23704,3.97138 -3.02741,7.58465 -5.37109,10.83985 -2.9623,4.10157 -6.31516,7.21029 -10.0586,9.32617 -3.71098,2.11588 -7.69861,3.17383 -11.96289,3.17383 -3.74352,0 -6.93362,-0.7487 -9.57031,-2.2461 -2.60419,-1.52994 -4.80146,-3.88997 -6.5918,-7.08007 m 18.35938,-35.400386 c -4.49223,4e-5 -8.17061,2.08337 -11.03516,6.25 -2.83206,4.134136 -4.24807,9.521506 -4.24805,16.162096 -2e-5,2.99481 0.7975,5.35484 2.39258,7.08008 1.62758,1.69272 3.87367,2.53908 6.73828,2.53907 4.3945,10e-6 8.02405,-2.0345 10.88867,-6.10352 2.86454,-4.10154 4.29683,-9.34242 4.29688,-15.72266 -5e-5,-3.32027 -0.7813,-5.843056 -2.34375,-7.568356 -1.52999,-1.75777 -3.75981,-2.63667 -6.68945,-2.63671"
           style="font-size:100px;font-style:italic;font-weight:bold;stroke:#000000;stroke-width:4;stroke-miterlimit:4;stroke-opacity:1;stroke-dasharray:none"
           id="path3105"
           inkscape:connector-curvature="0" />
        <path
           d="m 175.75192,128.91594 -5.61524,28.71093 -17.57812,0 14.69727,-75.488274 17.57812,0 -1.61133,8.007808 c 2.66924,-3.19005 5.46872,-5.5338 8.39844,-7.031245 2.92965,-1.529893 6.13602,-2.294866 9.61914,-2.294922 6.15229,5.6e-5 11.01882,1.953179 14.59961,5.859377 3.58066,3.90629 5.37103,9.22855 5.37109,15.966786 -6e-5,4.19925 -0.63483,8.28454 -1.90429,12.25586 -1.23705,3.97138 -3.02741,7.58465 -5.3711,10.83985 -2.96229,4.10157 -6.31516,7.21029 -10.05859,9.32617 -3.71099,2.11588 -7.69861,3.17383 -11.96289,3.17383 -3.74353,0 -6.93363,-0.7487 -9.57031,-2.2461 -2.6042,-1.52994 -4.80146,-3.88997 -6.5918,-7.08007 m 18.35937,-35.400386 c -4.49222,4e-5 -8.1706,2.08337 -11.03515,6.25 -2.83206,4.134136 -4.24807,9.521506 -4.24805,16.162096 -2e-5,2.99481 0.7975,5.35484 2.39258,7.08008 1.62757,1.69272 3.87367,2.53908 6.73828,2.53907 4.39449,10e-6 8.02405,-2.0345 10.88867,-6.10352 2.86454,-4.10154 4.29683,-9.34242 4.29688,-15.72266 -5e-5,-3.32027 -0.7813,-5.843056 -2.34375,-7.568356 -1.53,-1.75777 -3.75981,-2.63667 -6.68946,-2.63671"
           style="font-size:100px;font-style:italic;font-weight:bold;stroke:#000000;stroke-width:4;stroke-miterlimit:4;stroke-opacity:1;stroke-dasharray:none"
           id="path3107"
           inkscape:connector-curvature="0" />
        <path
           d="m 285.81051,133.40812 c -4.49224,1.59506 -8.80539,2.79948 -12.93945,3.61328 -4.13416,0.81381 -8.05668,1.22071 -11.76758,1.22071 -9.7982,0 -17.62697,-2.68555 -23.48633,-8.05664 -5.85938,-5.37108 -8.78906,-12.48371 -8.78906,-21.33789 0,-5.82679 0.92773,-11.311806 2.7832,-16.455076 1.85546,-5.17573 4.58984,-9.895781 8.20313,-14.160158 4.2643,-5.012957 9.39125,-8.870375 15.38086,-11.572266 6.0221,-2.70175 12.49996,-4.05266 19.43359,-4.052734 3.77599,7.4e-5 7.5683,0.455803 11.37696,1.367188 3.80852,0.878978 7.68222,2.229888 11.62109,4.052734 l -3.02734,15.087891 c -3.12507,-2.376246 -6.26634,-4.117781 -9.42383,-5.22461 -3.15761,-1.106711 -6.54303,-1.660095 -10.15625,-1.660156 -7.51958,6.1e-5 -13.8184,2.897193 -18.89649,8.691411 -5.07815,5.79431 -7.61721,13.03714 -7.61718,21.728506 -3e-5,5.59898 1.56247,9.99351 4.6875,13.18359 3.12496,3.19012 7.43811,4.78517 12.93945,4.78516 3.28771,10e-6 6.77078,-0.58592 10.44922,-1.75781 3.71088,-1.20441 7.86127,-3.07616 12.45117,-5.61524 l -3.22266,16.16211"
           style="font-size:100px;font-style:italic;font-weight:bold;stroke:#000000;stroke-width:4;stroke-miterlimit:4;stroke-opacity:1;stroke-dasharray:none"
           id="path3109"
           inkscape:connector-curvature="0" />
        <path
           d="m 314.9609,63.925705 23.09571,0 9.375,38.720695 24.60937,-38.720695 24.02344,0 -14.20899,72.900385 -17.82226,0 10.40039,-53.808588 -25.29297,39.794918 -10.10742,0 -10.05859,-39.794918 -10.4004,53.808588 -17.82226,0 14.20898,-72.900385"
           style="font-size:100px;font-style:italic;font-weight:bold;stroke:#000000;stroke-width:4;stroke-miterlimit:4;stroke-opacity:1;stroke-dasharray:none"
           id="path3111"
           inkscape:connector-curvature="0" />
        <path
           d="m 464.76559,66.220627 -3.02734,15.429688 c -3.67845,-1.82286 -7.308,-3.17377 -10.88867,-4.052735 -3.58078,-0.911398 -7.08013,-1.367126 -10.49805,-1.367187 -4.68754,6.1e-5 -8.34964,0.732482 -10.98633,2.197266 -2.60419,1.4649 -3.90628,3.499403 -3.90625,6.103515 -3e-5,1.66021 0.56963,2.96229 1.70898,3.90625 1.17185,0.91151 3.56443,1.80669 7.17774,2.68555 l 7.71484,1.90429 c 6.44526,1.62765 11.16531,3.98767 14.16016,7.080076 3.02728,3.05993 4.54095,7.03128 4.54101,11.91406 -6e-5,7.91018 -3.01112,14.25783 -9.0332,19.04297 -5.98963,4.78516 -14.04626,7.17774 -24.16992,7.17774 -4.72008,0 -9.42385,-0.43946 -14.11133,-1.31836 -4.65496,-0.87891 -9.21224,-2.18099 -13.67187,-3.90625 l 2.97851,-15.86914 c 4.32942,2.50653 8.52863,4.37827 12.59766,5.61523 4.10154,1.23699 8.13799,1.85548 12.10937,1.85547 4.29684,10e-6 7.77991,-0.87889 10.44922,-2.63672 2.70178,-1.75779 4.05269,-4.00389 4.05274,-6.73828 -5e-5,-1.79034 -0.60226,-3.1738 -1.80664,-4.15039 -1.20447,-1.00909 -3.84119,-2.03448 -7.91016,-3.07617 l -7.66602,-1.9043 c -5.66408,-1.39971 -9.87957,-3.61325 -12.64648,-6.640616 -2.76694,-3.02731 -4.1504,-6.94983 -4.15039,-11.76758 -10e-6,-7.58458 2.89712,-13.655538 8.69141,-18.212892 5.82679,-4.589772 13.65556,-6.884692 23.48632,-6.884766 3.93876,7.4e-5 7.97521,0.309319 12.10938,0.927734 4.16661,0.586011 8.39837,1.481192 12.69531,2.685547"
           style="font-size:100px;font-style:italic;font-weight:bold;stroke:#000000;stroke-width:4;stroke-miterlimit:4;stroke-opacity:1;stroke-dasharray:none"
           id="path3113"
           inkscape:connector-curvature="0" />
      </g>
    </g>
    <g
       transform="matrix(1.6815152,0,0,1.6329852,-185.03076,158.4329)"
       style="font-size:72.82284546px;font-style:normal;font-weight:normal;line-height:125%;letter-spacing:0px;word-spacing:0px;fill:#481800;fill-opacity:1;stroke:#000000;stroke-width:0;stroke-miterlimit:4;stroke-opacity:1;stroke-dasharray:none;font-family:Sans"
       id="text3895">
      <path
         d="m 215.94337,419.23309 8.68406,0 0,4.02398 -8.68406,0 0,-4.02398"
         style="font-size:28.31999397px;font-weight:bold;fill:#481800;fill-opacity:1;stroke:#000000;stroke-width:0;stroke-miterlimit:4;stroke-opacity:1;stroke-dasharray:none;-inkscape-font-specification:Sans Bold"
         id="path3156"
         inkscape:connector-curvature="0" />
      <path
         d="m 228.78969,408.75137 14.36742,0 0,4.02399 -9.04359,0 0,3.84421 8.5043,0 0,4.02399 -8.5043,0 0,8.7532 -5.32383,0 0,-20.64539"
         style="font-size:28.31999397px;font-weight:bold;fill:#481800;fill-opacity:1;stroke:#000000;stroke-width:0;stroke-miterlimit:4;stroke-opacity:1;stroke-dasharray:none;-inkscape-font-specification:Sans Bold"
         id="path3158"
         inkscape:connector-curvature="0" />
      <path
         d="m 253.21016,422.42739 c -1.03251,0 -1.81149,0.17516 -2.33696,0.52546 -0.51625,0.35032 -0.77438,0.86657 -0.77437,1.54875 -1e-5,0.62688 0.20742,1.12009 0.62227,1.47961 0.42405,0.35032 1.00944,0.52547 1.75617,0.52547 0.93108,0 1.71467,-0.33187 2.35078,-0.99562 0.63608,-0.67297 0.95413,-1.51187 0.95414,-2.51672 l 0,-0.56695 -2.57203,0 m 7.56398,-1.8668 0,8.83617 -4.99195,0 0,-2.29547 c -0.66376,0.94031 -1.41048,1.62711 -2.24016,2.06039 -0.82969,0.42406 -1.83915,0.63609 -3.02836,0.63609 -1.60406,0 -2.90852,-0.46554 -3.91335,-1.39664 -0.99563,-0.94031 -1.49344,-2.15718 -1.49344,-3.65062 0,-1.81609 0.62226,-3.14819 1.86679,-3.99633 1.25375,-0.84811 3.21734,-1.27217 5.89078,-1.27218 l 2.91774,0 0,-0.38719 c -1e-5,-0.78358 -0.30884,-1.35515 -0.92649,-1.71469 -0.61766,-0.36874 -1.58102,-0.55311 -2.89007,-0.55312 -1.06017,10e-6 -2.04657,0.10602 -2.95922,0.31804 -0.91266,0.21205 -1.76079,0.53009 -2.54438,0.95414 l 0,-3.77507 c 1.06016,-0.25811 2.12492,-0.45171 3.1943,-0.58079 1.06937,-0.13826 2.13874,-0.2074 3.20812,-0.20742 2.79327,2e-5 4.80757,0.55314 6.04289,1.65938 1.24452,1.09704 1.86678,2.88548 1.8668,5.36531"
         style="font-size:28.31999397px;font-weight:bold;fill:#481800;fill-opacity:1;stroke:#000000;stroke-width:0;stroke-miterlimit:4;stroke-opacity:1;stroke-dasharray:none;-inkscape-font-specification:Sans Bold"
         id="path3160"
         inkscape:connector-curvature="0" />
      <path
         d="m 277.50617,414.39325 0,3.76125 c -1.06017,-0.44249 -2.08345,-0.77437 -3.06984,-0.99563 -0.98642,-0.22124 -1.91751,-0.33186 -2.79328,-0.33187 -0.94032,10e-6 -1.64095,0.11985 -2.10188,0.35953 -0.45172,0.23048 -0.67758,0.59001 -0.67758,1.07859 0,0.39642 0.17054,0.70064 0.51164,0.91266 0.35031,0.21204 0.97257,0.36876 1.8668,0.47015 l 0.87117,0.12446 c 2.53515,0.32266 4.24061,0.85274 5.11641,1.59023 0.87576,0.73751 1.31365,1.89446 1.31367,3.47086 -2e-5,1.65016 -0.60845,2.89008 -1.82531,3.71976 -1.21689,0.82969 -3.03298,1.24453 -5.44828,1.24453 -1.02329,0 -2.08345,-0.083 -3.18047,-0.2489 -1.08782,-0.15672 -2.20789,-0.39641 -3.36024,-0.71906 l 0,-3.76125 c 0.98641,0.47938 1.99586,0.83891 3.02836,1.07859 1.04172,0.23969 2.09726,0.35953 3.16664,0.35953 0.96796,0 1.69624,-0.13367 2.18485,-0.40101 0.48858,-0.26734 0.73288,-0.66375 0.73289,-1.18922 -1e-5,-0.4425 -0.17056,-0.76976 -0.51164,-0.9818 -0.33189,-0.22124 -1.00025,-0.39179 -2.00508,-0.51164 l -0.87117,-0.11062 c -2.20329,-0.27656 -3.74743,-0.7882 -4.63242,-1.53493 -0.88501,-0.74671 -1.3275,-1.88061 -1.3275,-3.40171 0,-1.64093 0.56234,-2.8578 1.68703,-3.65063 1.12468,-0.7928 2.84858,-1.1892 5.17172,-1.18922 0.91264,2e-5 1.87139,0.0692 2.87624,0.20742 1.00484,0.1383 2.09726,0.35494 3.27727,0.64993"
         style="font-size:28.31999397px;font-weight:bold;fill:#481800;fill-opacity:1;stroke:#000000;stroke-width:0;stroke-miterlimit:4;stroke-opacity:1;stroke-dasharray:none;-inkscape-font-specification:Sans Bold"
         id="path3162"
         inkscape:connector-curvature="0" />
      <path
         d="m 287.68367,409.51192 0,4.39734 5.10258,0 0,3.54 -5.10258,0 0,6.56836 c -1e-5,0.71907 0.14288,1.20766 0.42867,1.46578 0.28577,0.24891 0.85273,0.37336 1.70086,0.37336 l 2.54438,0 0,3.54 -4.24524,0 c -1.95438,0 -3.3418,-0.40563 -4.16226,-1.21688 -0.81126,-0.82046 -1.21688,-2.20788 -1.21688,-4.16226 l 0,-6.56836 -2.4614,0 0,-3.54 2.4614,0 0,-4.39734 4.95047,0"
         style="font-size:28.31999397px;font-weight:bold;fill:#481800;fill-opacity:1;stroke:#000000;stroke-width:0;stroke-miterlimit:4;stroke-opacity:1;stroke-dasharray:none;-inkscape-font-specification:Sans Bold"
         id="path3164"
         inkscape:connector-curvature="0" />
      <path
         d="m 311.28827,421.61153 0,1.41046 -11.57413,0 c 0.11983,1.16157 0.53929,2.03274 1.25836,2.61352 0.71905,0.58078 1.72389,0.87117 3.01453,0.87117 1.0417,0 2.10647,-0.1521 3.19429,-0.45633 1.09702,-0.31343 2.2217,-0.78359 3.37406,-1.41046 l 0,3.81656 c -1.17079,0.4425 -2.34157,0.77437 -3.51234,0.99562 -1.17079,0.23047 -2.34157,0.3457 -3.51234,0.3457 -2.80251,0 -4.98274,-0.70984 -6.5407,-2.12953 -1.54876,-1.4289 -2.32313,-3.42937 -2.32313,-6.0014 0,-2.52593 0.76055,-4.51257 2.28164,-5.95992 1.53031,-1.44733 3.63218,-2.171 6.30563,-2.17102 2.43373,2e-5 4.37889,0.73291 5.83546,2.19867 1.46577,1.4658 2.19866,3.42478 2.19867,5.87696 m -5.08874,-1.64555 c -2e-5,-0.9403 -0.27658,-1.69624 -0.82969,-2.26781 -0.54392,-0.58077 -1.25837,-0.87116 -2.14336,-0.87117 -0.95876,10e-6 -1.73774,0.27196 -2.33695,0.81586 -0.59923,0.53469 -0.97259,1.30907 -1.12008,2.32312 l 6.43008,0"
         style="font-size:28.31999397px;font-weight:bold;fill:#481800;fill-opacity:1;stroke:#000000;stroke-width:0;stroke-miterlimit:4;stroke-opacity:1;stroke-dasharray:none;-inkscape-font-specification:Sans Bold"
         id="path3166"
         inkscape:connector-curvature="0" />
      <path
         d="m 326.52686,418.12684 c -0.4333,-0.2028 -0.86658,-0.3503 -1.29984,-0.4425 -0.42408,-0.10139 -0.85275,-0.1521 -1.28602,-0.15211 -1.2722,10e-6 -2.25399,0.41025 -2.94539,1.2307 -0.68219,0.81126 -1.02329,1.97743 -1.02328,3.49852 l 0,7.13531 -4.95047,0 0,-15.4875 4.95047,0 0,2.54438 c 0.63609,-1.01405 1.36437,-1.75155 2.18484,-2.2125 0.82968,-0.47014 1.82069,-0.70522 2.97305,-0.70524 0.16592,2e-5 0.34569,0.009 0.5393,0.0277 0.19358,0.009 0.47475,0.0369 0.84351,0.083 l 0.0138,4.48031"
         style="font-size:28.31999397px;font-weight:bold;fill:#481800;fill-opacity:1;stroke:#000000;stroke-width:0;stroke-miterlimit:4;stroke-opacity:1;stroke-dasharray:none;-inkscape-font-specification:Sans Bold"
         id="path3168"
         inkscape:connector-curvature="0" />
      <path
         d="m 225.78899,454.63308 8.68406,0 0,4.02399 -8.68406,0 0,-4.02399"
         style="font-size:28.31999397px;font-weight:bold;fill:#481800;fill-opacity:1;stroke:#000000;stroke-width:0;stroke-miterlimit:4;stroke-opacity:1;stroke-dasharray:none;-inkscape-font-specification:Sans Bold"
         id="path3170"
         inkscape:connector-curvature="0" />
      <path
         d="m 238.63532,444.15137 5.32382,0 0,16.6214 9.34781,0 0,4.02398 -14.67163,0 0,-20.64538"
         style="font-size:28.31999397px;font-weight:bold;fill:#481800;fill-opacity:1;stroke:#000000;stroke-width:0;stroke-miterlimit:4;stroke-opacity:1;stroke-dasharray:none;-inkscape-font-specification:Sans Bold"
         id="path3172"
         inkscape:connector-curvature="0" />
      <path
         d="m 256.44594,449.30925 4.95047,0 0,15.4875 -4.95047,0 0,-15.4875 m 0,-6.02906 4.95047,0 0,4.03782 -4.95047,0 0,-4.03782"
         style="font-size:28.31999397px;font-weight:bold;fill:#481800;fill-opacity:1;stroke:#000000;stroke-width:0;stroke-miterlimit:4;stroke-opacity:1;stroke-dasharray:none;-inkscape-font-specification:Sans Bold"
         id="path3174"
         inkscape:connector-curvature="0" />
      <path
         d="m 276.71796,462.16941 c -0.6822,0.90344 -1.43352,1.56719 -2.25398,1.99125 -0.82048,0.42406 -1.77001,0.63609 -2.84859,0.63609 -1.88985,0 -3.45243,-0.74211 -4.68774,-2.22633 -1.23531,-1.49343 -1.85297,-3.39249 -1.85296,-5.69718 -10e-6,-2.3139 0.61765,-4.20835 1.85296,-5.68336 1.23531,-1.4842 2.79789,-2.22631 4.68774,-2.22633 1.07858,2e-5 2.02811,0.21205 2.84859,0.6361 0.82046,0.42407 1.57178,1.09243 2.25398,2.00507 l 0,-2.29547 4.97813,0 0,13.92492 c -2e-5,2.48906 -0.78822,4.38812 -2.36461,5.69719 -1.5672,1.31828 -3.84423,1.97742 -6.83109,1.97742 -0.96798,0 -1.90368,-0.0737 -2.80711,-0.22125 -0.90344,-0.1475 -1.81149,-0.37336 -2.72414,-0.67758 l 0,-3.85804 c 0.86656,0.49781 1.71468,0.86656 2.54437,1.10625 0.82968,0.2489 1.66398,0.37335 2.50289,0.37336 1.62249,-1e-5 2.81171,-0.35493 3.56766,-1.06477 0.75592,-0.70984 1.13389,-1.8207 1.1339,-3.33258 l 0,-1.06476 m -3.26343,-9.6382 c -1.02329,1e-5 -1.82071,0.37798 -2.39227,1.1339 -0.57157,0.75595 -0.85735,1.82532 -0.85734,3.20813 -1e-5,1.41969 0.27655,2.49828 0.82969,3.23578 0.55311,0.72828 1.35975,1.09242 2.41992,1.09242 1.03249,0 1.83452,-0.37796 2.40609,-1.13391 0.57155,-0.75593 0.85733,-1.82069 0.85734,-3.19429 -1e-5,-1.38281 -0.28579,-2.45218 -0.85734,-3.20813 -0.57157,-0.75592 -1.3736,-1.13389 -2.40609,-1.1339"
         style="font-size:28.31999397px;font-weight:bold;fill:#481800;fill-opacity:1;stroke:#000000;stroke-width:0;stroke-miterlimit:4;stroke-opacity:1;stroke-dasharray:none;-inkscape-font-specification:Sans Bold"
         id="path3176"
         inkscape:connector-curvature="0" />
      <path
         d="m 302.05108,455.36597 0,9.43078 -4.97812,0 0,-1.53492 0,-5.6557 c -1e-5,-1.35515 -0.0323,-2.28624 -0.0968,-2.79328 -0.0553,-0.50702 -0.15673,-0.88038 -0.30422,-1.12008 -0.1936,-0.32265 -0.45634,-0.57155 -0.7882,-0.74672 -0.33189,-0.18436 -0.70985,-0.27655 -1.13391,-0.27656 -1.0325,1e-5 -1.84375,0.40103 -2.43375,1.20305 -0.59,0.79282 -0.885,1.89446 -0.88499,3.30492 l 0,7.61929 -4.95047,0 0,-21.51656 4.95047,0 0,8.29688 c 0.74671,-0.90343 1.53952,-1.56718 2.37843,-1.99125 0.8389,-0.43327 1.76538,-0.64991 2.77945,-0.64992 1.78843,10e-6 3.14358,0.54853 4.06547,1.64554 0.93108,1.09705 1.39662,2.69189 1.39664,4.78453"
         style="font-size:28.31999397px;font-weight:bold;fill:#481800;fill-opacity:1;stroke:#000000;stroke-width:0;stroke-miterlimit:4;stroke-opacity:1;stroke-dasharray:none;-inkscape-font-specification:Sans Bold"
         id="path3178"
         inkscape:connector-curvature="0" />
      <path
         d="m 322.12952,457.01152 0,1.41047 -11.57414,0 c 0.11984,1.16156 0.53929,2.03274 1.25836,2.61351 0.71906,0.58079 1.7239,0.87118 3.01453,0.87117 1.04171,10e-6 2.10647,-0.1521 3.1943,-0.45632 1.09702,-0.31344 2.2217,-0.78359 3.37406,-1.41047 l 0,3.81656 c -1.1708,0.4425 -2.34158,0.77437 -3.51234,0.99562 -1.17079,0.23047 -2.34157,0.34571 -3.51234,0.34571 -2.80251,0 -4.98274,-0.70985 -6.54071,-2.12953 -1.54875,-1.42891 -2.32312,-3.42937 -2.32312,-6.00141 0,-2.52593 0.76054,-4.51256 2.28164,-5.95992 1.53031,-1.44733 3.63218,-2.171 6.30562,-2.17101 2.43374,10e-6 4.37889,0.7329 5.83547,2.19867 1.46576,1.46579 2.19865,3.42477 2.19867,5.87695 m -5.08875,-1.64555 c -1e-5,-0.9403 -0.27657,-1.69624 -0.82968,-2.26781 -0.54392,-0.58077 -1.25837,-0.87116 -2.14336,-0.87117 -0.95876,10e-6 -1.73775,0.27196 -2.33696,0.81586 -0.59922,0.5347 -0.97258,1.30907 -1.12007,2.32312 l 6.43007,0"
         style="font-size:28.31999397px;font-weight:bold;fill:#481800;fill-opacity:1;stroke:#000000;stroke-width:0;stroke-miterlimit:4;stroke-opacity:1;stroke-dasharray:none;-inkscape-font-specification:Sans Bold"
         id="path3180"
         inkscape:connector-curvature="0" />
      <path
         d="m 337.36811,453.52683 c -0.4333,-0.2028 -0.86658,-0.3503 -1.29985,-0.4425 -0.42407,-0.10139 -0.85274,-0.1521 -1.28601,-0.15211 -1.2722,1e-5 -2.25399,0.41025 -2.94539,1.23071 -0.6822,0.81126 -1.02329,1.97743 -1.02328,3.49851 l 0,7.13531 -4.95047,0 0,-15.4875 4.95047,0 0,2.54438 c 0.63608,-1.01405 1.36436,-1.75155 2.18484,-2.2125 0.82968,-0.47014 1.82069,-0.70522 2.97305,-0.70523 0.16592,10e-6 0.34569,0.009 0.53929,0.0276 0.19358,0.009 0.47476,0.0369 0.84352,0.083 l 0.0138,4.48031"
         style="font-size:28.31999397px;font-weight:bold;fill:#481800;fill-opacity:1;stroke:#000000;stroke-width:0;stroke-miterlimit:4;stroke-opacity:1;stroke-dasharray:none;-inkscape-font-specification:Sans Bold"
         id="path3182"
         inkscape:connector-curvature="0" />
      <path
         d="m 235.63461,490.03307 8.68407,0 0,4.02399 -8.68407,0 0,-4.02399"
         style="font-size:28.31999397px;font-weight:bold;fill:#481800;fill-opacity:1;stroke:#000000;stroke-width:0;stroke-miterlimit:4;stroke-opacity:1;stroke-dasharray:none;-inkscape-font-specification:Sans Bold"
         id="path3184"
         inkscape:connector-curvature="0" />
      <path
         d="m 267.03828,498.66182 c -1.32752,0.64532 -2.70572,1.1293 -4.13461,1.45196 -1.42892,0.32265 -2.90392,0.48398 -4.425,0.48398 -3.4386,0 -6.16274,-0.95875 -8.17242,-2.87625 -2.00969,-1.92671 -3.01453,-4.53562 -3.01453,-7.82672 0,-3.32795 1.02328,-5.94607 3.06984,-7.85437 2.04656,-1.90826 4.84906,-2.8624 8.4075,-2.86242 1.37358,2e-5 2.68725,0.12908 3.94102,0.38719 1.26295,0.25814 2.45216,0.64072 3.56765,1.14773 l 0,4.27289 c -1.15236,-0.65452 -2.30009,-1.14311 -3.4432,-1.46578 -1.13392,-0.32264 -2.27244,-0.48397 -3.41555,-0.48399 -2.12032,2e-5 -3.75665,0.59463 -4.90898,1.78383 -1.14313,1.18002 -1.71469,2.87165 -1.71469,5.07492 0,2.18485 0.55312,3.87188 1.65938,5.0611 1.10624,1.18922 2.67803,1.78383 4.71539,1.78382 0.55311,10e-6 1.06475,-0.0323 1.53492,-0.0968 0.47936,-0.0738 0.90803,-0.18437 1.28601,-0.33188 l 0,-4.01015 -3.2496,0 0,-3.56766 8.29687,0 0,9.92859"
         style="font-size:28.31999397px;font-weight:bold;fill:#481800;fill-opacity:1;stroke:#000000;stroke-width:0;stroke-miterlimit:4;stroke-opacity:1;stroke-dasharray:none;-inkscape-font-specification:Sans Bold"
         id="path3186"
         inkscape:connector-curvature="0" />
      <path
         d="m 282.99593,488.92682 c -0.43329,-0.2028 -0.86657,-0.3503 -1.29984,-0.4425 -0.42407,-0.10139 -0.85275,-0.15209 -1.28602,-0.1521 -1.27219,10e-6 -2.25399,0.41024 -2.94539,1.2307 -0.68219,0.81126 -1.02328,1.97743 -1.02328,3.49851 l 0,7.13531 -4.95046,0 0,-15.48749 4.95046,0 0,2.54437 c 0.63609,-1.01405 1.36437,-1.75155 2.18485,-2.2125 0.82967,-0.47014 1.82069,-0.70522 2.97304,-0.70523 0.16593,10e-6 0.34569,0.009 0.5393,0.0276 0.19358,0.009 0.47475,0.0369 0.84352,0.083 l 0.0138,4.48031"
         style="font-size:28.31999397px;font-weight:bold;fill:#481800;fill-opacity:1;stroke:#000000;stroke-width:0;stroke-miterlimit:4;stroke-opacity:1;stroke-dasharray:none;-inkscape-font-specification:Sans Bold"
         id="path3188"
         inkscape:connector-curvature="0" />
      <path
         d="m 300.94484,492.41151 0,1.41047 -11.57414,0 c 0.11984,1.16157 0.53929,2.03274 1.25836,2.61351 0.71905,0.58079 1.72389,0.87118 3.01453,0.87118 1.04171,0 2.10647,-0.15211 3.19429,-0.45633 1.09702,-0.31344 2.22171,-0.78359 3.37407,-1.41047 l 0,3.81656 c -1.1708,0.4425 -2.34158,0.77438 -3.51235,0.99563 -1.17079,0.23046 -2.34157,0.3457 -3.51234,0.3457 -2.80251,0 -4.98274,-0.70984 -6.5407,-2.12953 -1.54875,-1.4289 -2.32313,-3.42937 -2.32313,-6.00141 0,-2.52592 0.76055,-4.51256 2.28164,-5.95992 1.53031,-1.44733 3.63218,-2.171 6.30563,-2.17101 2.43374,10e-6 4.37889,0.7329 5.83547,2.19867 1.46576,1.46579 2.19865,3.42477 2.19867,5.87695 m -5.08875,-1.64555 c -10e-6,-0.9403 -0.27658,-1.69623 -0.82969,-2.26781 -0.54392,-0.58077 -1.25837,-0.87116 -2.14336,-0.87117 -0.95876,10e-6 -1.73774,0.27197 -2.33695,0.81586 -0.59923,0.5347 -0.97258,1.30907 -1.12008,2.32312 l 6.43008,0"
         style="font-size:28.31999397px;font-weight:bold;fill:#481800;fill-opacity:1;stroke:#000000;stroke-width:0;stroke-miterlimit:4;stroke-opacity:1;stroke-dasharray:none;-inkscape-font-specification:Sans Bold"
         id="path3190"
         inkscape:connector-curvature="0" />
      <path
         d="m 320.13827,492.41151 0,1.41047 -11.57414,0 c 0.11983,1.16157 0.53929,2.03274 1.25836,2.61351 0.71905,0.58079 1.72389,0.87118 3.01453,0.87118 1.0417,0 2.10647,-0.15211 3.19429,-0.45633 1.09702,-0.31344 2.22171,-0.78359 3.37406,-1.41047 l 0,3.81656 c -1.17079,0.4425 -2.34157,0.77438 -3.51234,0.99563 -1.17079,0.23046 -2.34157,0.3457 -3.51234,0.3457 -2.80251,0 -4.98274,-0.70984 -6.5407,-2.12953 -1.54875,-1.4289 -2.32313,-3.42937 -2.32313,-6.00141 0,-2.52592 0.76055,-4.51256 2.28164,-5.95992 1.53031,-1.44733 3.63218,-2.171 6.30563,-2.17101 2.43373,10e-6 4.37889,0.7329 5.83546,2.19867 1.46577,1.46579 2.19866,3.42477 2.19868,5.87695 m -5.08875,-1.64555 c -2e-5,-0.9403 -0.27658,-1.69623 -0.82969,-2.26781 -0.54392,-0.58077 -1.25837,-0.87116 -2.14336,-0.87117 -0.95876,10e-6 -1.73774,0.27197 -2.33695,0.81586 -0.59923,0.5347 -0.97259,1.30907 -1.12008,2.32312 l 6.43008,0"
         style="font-size:28.31999397px;font-weight:bold;fill:#481800;fill-opacity:1;stroke:#000000;stroke-width:0;stroke-miterlimit:4;stroke-opacity:1;stroke-dasharray:none;-inkscape-font-specification:Sans Bold"
         id="path3192"
         inkscape:connector-curvature="0" />
      <path
         d="m 339.44233,490.76596 0,9.43078 -4.97813,0 0,-1.53492 0,-5.68336 c -1e-5,-1.33671 -0.0323,-2.25858 -0.0968,-2.76562 -0.0553,-0.50702 -0.15674,-0.88038 -0.30422,-1.12008 -0.19361,-0.32264 -0.45634,-0.57155 -0.78821,-0.74672 -0.33188,-0.18436 -0.70985,-0.27655 -1.1339,-0.27656 -1.03251,10e-6 -1.84376,0.40103 -2.43375,1.20305 -0.59001,0.79282 -0.88501,1.89446 -0.885,3.30492 l 0,7.61929 -4.95047,0 0,-15.48749 4.95047,0 0,2.26781 c 0.74671,-0.90342 1.53952,-1.56717 2.37844,-1.99125 0.83889,-0.43327 1.76537,-0.64991 2.77945,-0.64992 1.78842,10e-6 3.14358,0.54853 4.06547,1.64554 0.93107,1.09705 1.39662,2.69189 1.39664,4.78453"
         style="font-size:28.31999397px;font-weight:bold;fill:#481800;fill-opacity:1;stroke:#000000;stroke-width:0;stroke-miterlimit:4;stroke-opacity:1;stroke-dasharray:none;-inkscape-font-specification:Sans Bold"
         id="path3194"
         inkscape:connector-curvature="0" />
      <path
         d="m 359.52076,492.41151 0,1.41047 -11.57414,0 c 0.11984,1.16157 0.53929,2.03274 1.25836,2.61351 0.71905,0.58079 1.72389,0.87118 3.01453,0.87118 1.04171,0 2.10647,-0.15211 3.1943,-0.45633 1.09701,-0.31344 2.2217,-0.78359 3.37406,-1.41047 l 0,3.81656 c -1.1708,0.4425 -2.34158,0.77438 -3.51235,0.99563 -1.17079,0.23046 -2.34157,0.3457 -3.51234,0.3457 -2.80251,0 -4.98274,-0.70984 -6.5407,-2.12953 -1.54875,-1.4289 -2.32313,-3.42937 -2.32313,-6.00141 0,-2.52592 0.76055,-4.51256 2.28164,-5.95992 1.53031,-1.44733 3.63218,-2.171 6.30563,-2.17101 2.43374,10e-6 4.37889,0.7329 5.83547,2.19867 1.46576,1.46579 2.19865,3.42477 2.19867,5.87695 m -5.08875,-1.64555 c -10e-6,-0.9403 -0.27658,-1.69623 -0.82969,-2.26781 -0.54392,-0.58077 -1.25837,-0.87116 -2.14336,-0.87117 -0.95876,10e-6 -1.73774,0.27197 -2.33695,0.81586 -0.59923,0.5347 -0.97258,1.30907 -1.12008,2.32312 l 6.43008,0"
         style="font-size:28.31999397px;font-weight:bold;fill:#481800;fill-opacity:1;stroke:#000000;stroke-width:0;stroke-miterlimit:4;stroke-opacity:1;stroke-dasharray:none;-inkscape-font-specification:Sans Bold"
         id="path3196"
         inkscape:connector-curvature="0" />
      <path
         d="m 374.75935,488.92682 c -0.43329,-0.2028 -0.86658,-0.3503 -1.29984,-0.4425 -0.42408,-0.10139 -0.85275,-0.15209 -1.28602,-0.1521 -1.2722,10e-6 -2.25399,0.41024 -2.94539,1.2307 -0.68219,0.81126 -1.02329,1.97743 -1.02328,3.49851 l 0,7.13531 -4.95047,0 0,-15.48749 4.95047,0 0,2.54437 c 0.63609,-1.01405 1.36437,-1.75155 2.18484,-2.2125 0.82968,-0.47014 1.82069,-0.70522 2.97305,-0.70523 0.16592,10e-6 0.34569,0.009 0.5393,0.0276 0.19358,0.009 0.47475,0.0369 0.84351,0.083 l 0.0138,4.48031"
         style="font-size:28.31999397px;font-weight:bold;fill:#481800;fill-opacity:1;stroke:#000000;stroke-width:0;stroke-miterlimit:4;stroke-opacity:1;stroke-dasharray:none;-inkscape-font-specification:Sans Bold"
         id="path3198"
         inkscape:connector-curvature="0" />
    </g>
    <g
       inkscape:label="Layer 1"
       id="layer1-2"
       transform="matrix(0.17481231,0,0,0.19663538,39.497031,662.08126)">
      <g
         id="g2649">
        <path
           style="fill:url(#linearGradient2647);fill-opacity:1;fill-rule:nonzero;stroke:none"
           sodipodi:nodetypes="cssscssscsssssssssssscsssc"
           id="path18299"
           d="m 275.95224,286.74507 c -14.16093,9.26156 -58.77654,31.39364 -64.78324,32.52464 -10.73371,2.02104 -35.29658,-0.61267 -42.85665,-2.06001 -9.38879,-1.79742 -7.06887,-0.96107 -20.61362,-9.03235 -18.96807,-11.303 -34.32929,-13.07023 -37.69827,-15.86604 -19.118975,-6.74323 -5.30664,-7.71143 -8.31349,-18.15776 -1.61036,-5.59464 -11.884537,-4.01535 -15.161958,-6.63132 -7.02521,-5.60736 8.236508,-17.55003 3.855863,-18.26975 -12.802446,-2.10335 -36.933847,-7.50248 -33.423683,-13.97409 2.225498,-2.82353 2.370981,-1.99035 5.688371,-6.76135 3.384644,-4.86776 23.31204,1.54628 24.512941,-6.17878 1.2009,-7.72506 -2.952718,-9.89829 0.558994,-18.11976 2.700448,-6.3222 24.674812,8.77747 24.190952,-0.44679 -0.45149,-8.60653 -3.74346,-5.12683 -2.63442,-13.7573 1.10906,-8.6305 14.27895,3.36468 18.61856,-2.58005 2.25786,-3.093 10.48657,-8.49737 18.18141,-9.83961 7.69486,-1.34222 14.85585,1.37768 17.96798,2.79066 4.85336,2.20355 -6.70026,-15.73043 -2.68467,-21.99889 7.45948,-11.64445 29.01661,-41.57607 45.96842,-58.29098 15.19937,-14.986984 22.0045,-27.65492 37.93118,-36.8861 9.7001,-5.622227 16.42206,-8.798836 22.95977,-8.803738 6.53772,-0.0049 12.89118,3.161943 21.85425,10.226625 14.94118,17.995743 17.2127,42.879453 15.76552,65.256033 -1.52653,23.60408 -6.71943,45.52356 -11.32324,69.15882 -1.49468,7.67358 -7.23495,42.91634 -12.80953,66.94282 -6.34641,27.35315 0.58737,-1.00112 -5.75144,20.75507 z"
           inkscape:connector-curvature="0" />
        <path
           style="fill:#000000;fill-opacity:1;stroke:#000000;stroke-opacity:1"
           sodipodi:nodetypes="ccccccccccccccccccccccccccccccccccccccccccccccccccccccccccccccccccccccccccccccccc"
           id="path15222"
           d="m 283.74014,56.971779 c -5.4959,-2.830035 -11.89375,-3.98047 -19.09897,-3.336619 -13.0386,1.16506 -20.99206,6.182472 -40.68924,25.658653 -17.88679,17.686102 -59.33748,67.020847 -62.66977,74.571117 -2.74355,6.21639 -3.58617,15.08107 -1.84571,19.37138 1.50174,3.70183 1.37272,3.75285 -5.51528,2.36219 -7.63129,-1.54072 -14.02109,0.29589 -21.31164,6.1841 l -5.95428,4.81227 -6.61068,-0.83275 c -12.19245,-1.55335 -16.90836,3.41848 -12.82849,13.47553 1.27705,3.14801 1.74444,5.81238 1.08785,6.07874 -0.64399,0.26126 -4.61166,-0.87179 -8.823884,-2.4893 -8.661291,-3.32594 -12.514039,-2.55927 -15.048305,2.94877 -1.139797,2.47729 -1.114475,5.45136 0.08335,9.93445 2.057113,7.69906 1.388674,8.16745 -13.205101,9.18861 -12.044784,0.8428 -12.322276,0.96903 -15.116631,6.25999 -3.084687,5.84064 -1.347535,9.79392 5.62451,12.86263 5.191491,2.28501 13.581838,4.27549 22.449934,5.31929 2.340836,0.27555 4.432222,1.01936 4.689314,1.65311 0.257092,0.63373 -1.089074,2.96435 -3.031701,5.20777 -6.964246,8.04256 -4.544545,14.04796 6.42204,15.88773 3.839055,0.64405 7.245211,1.79484 7.555825,2.56056 0.310649,0.76572 -0.222363,3.03521 -1.141861,5.03372 -0.919498,1.99849 -1.525525,4.63292 -1.367718,5.84358 0.490033,3.75979 5.752018,7.8617 11.407438,8.92497 2.97642,0.55961 9.00223,2.60553 13.38288,4.5398 4.38064,1.93427 10.06393,3.88889 12.60782,4.32895 2.80422,0.48505 6.87598,2.79372 10.38626,5.84457 3.18437,2.76761 7.7847,5.77031 10.19517,6.66943 11.53713,4.30333 32.32848,6.76417 48.18445,5.70502 6.44276,-0.43038 6.94964,2.25068 2.25551,3.08868 -5.34007,0.95327 73.61975,-32.98946 72.78022,-35.05897 -1.48188,-3.65291 7.56121,-36.87037 16.67735,-82.93778 6.23432,-31.50463 11.93893,-69.15262 12.33065,-81.49498 1.14311,-36.014921 -7.37367,-59.675123 -23.86131,-68.165211 z m -0.31074,4.732616 c 5.31074,3.194112 9.50199,8.593104 12.75214,15.65074 0.5515,1.337136 0.81698,1.697442 1.49761,3.409807 0.41976,1.056092 0.46862,1.44678 0.82906,2.37884 3.85493,11.432506 5.58716,26.400878 4.83502,44.691858 -0.4506,10.95819 -6.64486,50.59415 -12.71781,81.24533 -5.8149,29.34877 -11.12209,60.31451 -11.86594,69.23999 -0.42369,5.08408 -0.42411,7.98686 0.7549,9.81189 0.0367,0.13383 -0.0206,0.60352 0.023,0.71106 0.0725,0.17881 -4.06054,-8.14722 -3.65979,-7.97463 1.64483,1.15766 -46.35677,35.0271 -72.55737,36.44386 -10.62616,0.57459 -28.56801,-0.81706 -38.95838,-3.00087 -7.74828,-1.62852 -10.32132,-2.85643 -15.49825,-7.4739 -4.57929,-4.08438 -8.08419,-5.99619 -13.33109,-7.2395 -3.91233,-0.92706 -8.95055,-2.71561 -11.21644,-4.01702 -2.26588,-1.30148 -7.61831,-3.29413 -11.88171,-4.3867 -10.09474,-2.58697 -11.79764,-4.65107 -9.17415,-11.13666 2.99179,-7.39595 1.47472,-9.60662 -7.811249,-11.33199 -9.342788,-1.73592 -11.08115,-4.63093 -6.138555,-10.23871 7.312565,-8.29674 5.257973,-11.97459 -7.581623,-13.58372 -4.423113,-0.55431 -10.90838,-1.89294 -14.396377,-2.95637 -6.484473,-1.977 -9.152276,-5.0912 -7.56922,-8.83533 1.182821,-2.79755 4.509776,-3.78353 14.967536,-4.38593 5.165613,-0.29755 10.482545,-0.9518 11.822559,-1.49544 3.520086,-1.42798 4.720074,-5.99176 2.827238,-10.65769 -2.385568,-5.88057 -2.185709,-10.54587 0.482968,-11.62846 1.243864,-0.5046 6.076677,0.45658 10.739003,2.16118 4.5431,1.66103 7.82294,2.39412 9.99317,2.16918 0.0405,-0.003 0.44369,0.16977 0.46695,0.16033 0.17176,-0.0697 0.25731,-0.26055 0.40369,-0.3619 2.91658,-0.8524 3.0979,-4.19918 0.93263,-10.56821 -2.93861,-8.64381 -1.40365,-10.32716 7.75914,-8.61121 l 7.11167,1.29648 7.48846,-5.88224 c 3.48545,-2.75093 5.32709,-4.13832 6.99873,-4.93882 0.43477,-0.19145 0.87961,-0.30685 1.31384,-0.46394 1.34801,-0.4177 2.7197,-0.58785 4.93396,-0.63343 3.17,-0.0652 8.83359,0.94575 12.59334,2.26052 3.75982,1.31479 7.16369,2.2873 7.53209,2.13786 0.36838,-0.14947 -0.67522,-3.52995 -2.28737,-7.50389 -1.61211,-3.97398 -2.96955,-8.86754 -3.0194,-10.87194 -0.13953,-5.61407 3.49095,-13.42115 9.38061,-20.20185 2.94143,-3.38639 8.996,-10.82603 13.45311,-16.54665 22.21568,-28.51355 52.28981,-59.246211 65.34905,-66.733035 6.93944,-3.978347 17.44913,-5.144221 25.8724,-2.895525 2.32899,0.621764 4.51208,1.560393 6.55087,2.786635 z"
           inkscape:connector-curvature="0" />
        <path
           style="opacity:0.65968586;fill:#ffffff;fill-opacity:1;fill-rule:nonzero;stroke:#000031;stroke-width:1.36335325;stroke-linejoin:round;stroke-miterlimit:4;stroke-opacity:1;stroke-dashoffset:0"
           sodipodi:nodetypes="cscccc"
           id="path15231"
           d="m 285.89389,105.66159 c -5.4486,2.26645 -10.61481,-8.855518 -15.77655,-11.188119 -5.16177,-2.332621 -18.70524,-0.261716 -21.12758,-6.085092 -4.8447,-11.646753 3.32514,-16.946578 14.22235,-21.479494 10.89723,-4.532895 23.67326,1.24065 28.51796,12.887403 4.84468,11.646772 5.06103,21.332402 -5.83618,25.865302 z"
           inkscape:connector-curvature="0" />
        <path
           transform="matrix(0.39712,0.132456,-0.172531,0.56366,101.5808,-51.88495)"
           style="fill:#e42727;fill-opacity:0.64705882;fill-rule:nonzero;stroke:#000031;stroke-width:3.20000005;stroke-linejoin:round;stroke-miterlimit:4;stroke-opacity:1;stroke-dashoffset:0"
           sodipodi:type="arc"
           sodipodi:ry="21"
           sodipodi:rx="39.5"
           sodipodi:cy="195"
           sodipodi:cx="533.5"
           id="path15236"
           d="m 573,195 c 0,11.59798 -17.68475,21 -39.5,21 -21.81525,0 -39.5,-9.40202 -39.5,-21 0,-11.59798 17.68475,-21 39.5,-21 21.81525,0 39.5,9.40202 39.5,21 z" />
        <path
           transform="matrix(0.622141,-0.524577,0.575316,0.90371,-220.2761,232.0244)"
           style="fill:#fefe11;fill-opacity:0.86486487;fill-rule:nonzero;stroke:#000031;stroke-width:1.47303927;stroke-linejoin:round;stroke-miterlimit:4;stroke-opacity:1;stroke-dashoffset:0"
           sodipodi:type="arc"
           sodipodi:ry="21"
           sodipodi:rx="39.5"
           sodipodi:cy="195"
           sodipodi:cx="533.5"
           id="path15238"
           d="m 573,195 c 0,11.59798 -17.68475,21 -39.5,21 -21.81525,0 -39.5,-9.40202 -39.5,-21 0,-11.59798 17.68475,-21 39.5,-21 21.81525,0 39.5,9.40202 39.5,21 z" />
        <path
           transform="matrix(0.465379,1.118784,-1.118784,0.465379,149.0473,-698.1427)"
           style="fill:#ffffff;fill-opacity:1;fill-rule:nonzero;stroke:#000031;stroke-width:1.13;stroke-linejoin:round;stroke-miterlimit:4;stroke-opacity:1;stroke-dashoffset:0"
           sodipodi:type="arc"
           sodipodi:ry="6"
           sodipodi:rx="5"
           sodipodi:cy="353"
           sodipodi:cx="688"
           id="path15240"
           d="m 693,353 c 0,3.31371 -2.23858,6 -5,6 -2.76142,0 -5,-2.68629 -5,-6 0,-3.31371 2.23858,-6 5,-6 2.76142,0 5,2.68629 5,6 z" />
        <path
           style="fill:url(#linearGradient2607);fill-opacity:1;fill-rule:nonzero;stroke:none"
           sodipodi:nodetypes="cssscssscsssssssssssscsssc"
           id="path22217"
           d="m 272.42859,286.89843 c -13.00937,8.78254 -56.4043,30.40687 -62.87819,31.73219 -11.56855,2.36831 -40.52139,1.56069 -49.65015,0.76588 -11.33691,-0.98705 -8.40164,-0.40668 -26.62824,-6.53043 -25.52452,-8.57572 -43.672214,-9.18387 -48.474982,-11.38327 -24.13922,-4.65496 -8.694948,-6.302 -15.697574,-15.08621 -3.750347,-4.70446 -14.944952,-2.74232 -19.581736,-4.79283 -9.938971,-4.39535 3.411753,-15.54308 -1.83725,-15.9016 -15.340145,-1.04773 -44.7449183,-4.25332 -42.9467033,-10.01281 1.5772012,-2.55385 2.0280003,-1.84767 4.1869577,-6.13681 2.2027756,-4.3761 27.1528416,-0.0514 25.8854606,-6.7497 -1.267361,-6.69832 -6.753591,-8.31724 -5.551341,-15.57803 0.924479,-5.58345 31.179452,6.07172 27.47578,-1.81318 -3.45569,-7.35689 -6.026748,-4.17705 -7.708314,-11.64673 -1.681586,-7.46966 17.457329,2.04259 20.382799,-3.31393 1.522151,-2.78694 9.073948,-7.90975 17.403708,-9.5161 8.32978,-1.60631 17.437445,0.30383 21.474475,1.33208 6.29572,1.60357 -13.025962,-13.09913 -10.581078,-18.71423 4.541628,-10.43072 18.937188,-37.38334 32.587908,-52.72509 12.23955,-13.75578 15.68424,-25.02588 30.72064,-33.886731 9.15787,-5.396689 15.74986,-8.51924 23.2149,-8.909869 7.46503,-0.390609 15.80309,1.950684 28.45312,7.481684 23.21171,14.555476 34.30635,35.769006 40.2975,55.051476 6.31982,20.34025 7.8768,39.45198 10.69272,60.00084 0.91426,6.67156 6.3974,37.24572 8.23826,58.18761 2.09573,23.84148 0.32883,-0.89358 0.52133,18.14579 z"
           inkscape:connector-curvature="0" />
        <path
           style="fill:#000000;fill-opacity:1"
           sodipodi:nodetypes="ccccccccccccccccccccccccccccccccccccccccccccccccccccccccccccccccccccccccccccccccc"
           id="path22219"
           d="m 202.83128,89.315002 c -7.24359,-2.103034 -14.94353,-2.71182 -22.95269,-1.7336 -14.49334,1.770214 -21.86298,6.544782 -37.70592,24.417728 -14.38681,16.23019 -44.874562,61.0047 -46.101162,67.67905 -1.009852,5.49524 1.055993,13.15009 4.509362,16.72788 2.97968,3.08703 2.84978,3.13845 -5.492026,2.35253 -9.242015,-0.87072 -15.912396,1.0826 -22.227472,6.56504 l -5.156446,4.48041 -7.834528,-0.32367 c -14.455614,-0.61196 -18.143192,3.93214 -10.048099,12.31896 2.533909,2.62521 3.977871,4.88336 3.318977,5.15067 -0.646272,0.26219 -5.564776,-0.47533 -10.928105,-1.61401 -11.028165,-2.34138 -15.166482,-1.45593 -16.179291,3.41923 -0.455503,2.19263 0.589356,4.74262 3.48883,8.51785 4.979448,6.48348 4.376041,6.92481 -11.942642,8.66347 -13.4684043,1.435 -13.7422058,1.5597 -15.1261961,6.264 -1.5278467,5.19304 1.8066094,8.48187 10.8176481,10.70241 6.709773,1.65346 16.972298,2.86518 27.457086,3.2365 2.767603,0.098 5.410243,0.61253 5.920359,1.14101 0.510096,0.52849 -0.231195,2.60749 -1.683511,4.64696 -5.206475,7.3114 -0.391443,12.32041 12.761922,13.25055 4.604576,0.32561 8.887862,1.11154 9.504208,1.75009 0.616326,0.63855 0.782865,2.61708 0.415395,4.38594 -0.36745,1.76889 -0.159673,4.06477 0.434129,5.09407 1.844018,3.19658 9.254934,6.40458 16.077189,6.98251 3.590516,0.30414 11.171485,1.70316 16.835383,3.10366 5.66387,1.40048 12.82245,2.74142 15.87813,2.96859 3.36839,0.25038 8.80739,1.99031 13.85865,4.40017 4.58227,2.18613 10.86203,4.49023 13.92218,5.1191 14.64655,3.00991 39.23291,3.89214 56.98014,2.04628 7.21124,-0.75002 8.70602,1.5201 3.63112,2.51646 -5.77325,1.13345 72.81156,-32.65326 71.14579,-34.37908 -2.94031,-3.04627 -3.95943,-32.07813 -9.28474,-72.13834 -3.64189,-27.39642 -9.98743,-60.03196 -13.75622,-70.64364 -10.9973,-30.9649 -28.80672,-50.759636 -50.53745,-57.068778 z m 1.26178,4.078504 c 7.15651,2.426329 13.78763,6.810424 19.91055,12.673074 1.08663,1.11454 1.51294,1.40795 2.8752,2.83677 0.84016,0.88119 1.02946,1.21348 1.7595,1.9918 8.30807,9.58013 15.39972,22.31915 20.78899,38.05549 3.22874,9.4277 9.69408,43.79765 13.22877,70.45235 3.38447,25.52211 7.90115,52.40141 10.10059,60.10258 1.25284,4.3867 2.244,6.87703 4.21397,8.37304 0.0876,0.11264 0.18259,0.51899 0.26916,0.60867 0.14389,0.1491 -7.42068,-6.74952 -6.90404,-6.62515 2.27404,0.89594 -40.97851,32.78993 -70.41815,35.55402 -11.93983,1.12104 -32.90655,0.98763 -45.51933,-0.27172 -9.40562,-0.93912 -12.76373,-1.84046 -20.25365,-5.49579 -6.62522,-3.23335 -11.28127,-4.66634 -17.69843,-5.42283 -4.78495,-0.56407 -11.15005,-1.80067 -14.18251,-2.78324 -3.032411,-0.9826 -9.826109,-2.37572 -15.068582,-3.06105 -12.412869,-1.62271 -15.062851,-3.29284 -14.28207,-9.01193 0.890426,-6.52184 -1.597383,-8.32869 -12.792265,-9.26002 -11.263367,-0.93704 -14.237676,-3.3179 -10.508404,-8.42098 5.517466,-7.55003 1.914546,-10.58384 -13.299186,-11.20538 -5.241005,-0.21411 -13.105083,-0.9792 -17.451971,-1.68534 -8.081241,-1.31281 -12.1919743,-3.82681 -11.662986,-7.13249 0.3952529,-2.46991 3.858146,-3.51245 15.596146,-4.64738 5.797955,-0.56059 11.646931,-1.43617 12.991668,-1.98175 3.53245,-1.43312 3.343962,-5.41935 -0.411744,-9.31038 -4.73339,-4.90395 -6.098805,-8.91814 -3.420742,-10.00463 1.24823,-0.50643 7.096135,0.0325 13.003238,1.21931 5.756082,1.15647 9.752408,1.59153 12.154189,1.27026 0.04539,-0.005 0.564729,0.11943 0.588067,0.10996 0.172354,-0.0699 0.20486,-0.23873 0.337424,-0.33433 3.039838,-0.90366 2.10363,-3.78561 -2.544982,-9.12163 -6.308944,-7.24186 -5.130925,-8.77675 5.920061,-7.84622 l 8.565102,0.69192 6.543135,-5.48903 c 3.040988,-2.56606 4.670382,-3.86515 6.306106,-4.65072 0.431152,-0.18991 0.899772,-0.31523 1.342058,-0.47566 1.396849,-0.43804 2.905327,-0.66509 5.418697,-0.83506 3.598136,-0.24334 10.411858,0.28922 15.155011,1.19495 4.74319,0.90572 8.96297,1.53884 9.33267,1.38887 0.36969,-0.15001 -1.97704,-2.98844 -5.17578,-6.30243 -3.19871,-3.31398 -6.42069,-7.43196 -7.16232,-9.14859 -2.077152,-4.80809 -0.59775,-11.72042 3.81253,-17.8857 2.20257,-3.07905 6.57607,-9.81941 9.71232,-14.9906 15.63214,-25.775 39.48129,-53.91827 51.83869,-61.113132 6.56649,-3.823219 18.17131,-5.444635 28.55965,-4.013354 2.87235,0.395749 5.68625,1.071968 8.43365,2.003452 z"
           inkscape:connector-curvature="0" />
        <path
           style="opacity:0.65968586;fill:#ffffff;fill-opacity:1;fill-rule:nonzero;stroke:#000031;stroke-width:1.36335325;stroke-linejoin:round;stroke-miterlimit:4;stroke-opacity:1;stroke-dashoffset:0"
           sodipodi:nodetypes="cscccc"
           id="path22221"
           d="m 221.92372,130.95886 c -5.44861,2.26644 -15.14823,-6.96976 -21.84028,-8.66581 -6.69205,-1.69606 -21.45258,0.88111 -26.20842,-3.9716 -9.51169,-9.70544 -1.99138,-14.73508 8.90582,-19.267971 10.89723,-4.532935 27.46098,-0.334944 36.97267,9.370491 9.51168,9.70544 13.06741,18.00198 2.17021,22.53489 z"
           inkscape:connector-curvature="0" />
        <path
           transform="matrix(0.498798,0.09016175,-0.00449829,0.493761,-42.39821,6.693519)"
           style="fill:#e42727;fill-opacity:0.64864861;fill-rule:nonzero;stroke:#000031;stroke-width:3.20000005;stroke-linejoin:round;stroke-miterlimit:4;stroke-opacity:1;stroke-dashoffset:0"
           sodipodi:type="arc"
           sodipodi:ry="21"
           sodipodi:rx="39.5"
           sodipodi:cy="195"
           sodipodi:cx="533.5"
           id="path22223"
           d="m 573,195 c 0,11.59798 -17.68475,21 -39.5,21 -21.81525,0 -39.5,-9.40202 -39.5,-21 0,-11.59798 17.68475,-21 39.5,-21 21.81525,0 39.5,9.40202 39.5,21 z" />
        <path
           transform="matrix(0.531348,-0.48681,0.965779,0.74129,-313.0054,269.2847)"
           style="fill:#fefe11;fill-opacity:0.72432436;fill-rule:nonzero;stroke:#000031;stroke-width:1.47303927;stroke-linejoin:round;stroke-miterlimit:4;stroke-opacity:1;stroke-dashoffset:0"
           sodipodi:type="arc"
           sodipodi:ry="21"
           sodipodi:rx="39.5"
           sodipodi:cy="195"
           sodipodi:cx="533.5"
           id="path22225"
           d="m 573,195 c 0,11.59798 -17.68475,21 -39.5,21 -21.81525,0 -39.5,-9.40202 -39.5,-21 0,-11.59798 17.68475,-21 39.5,-21 21.81525,0 39.5,9.40202 39.5,21 z" />
        <path
           transform="matrix(0.913692,0.932302,-1.118784,0.465379,-208.9511,-550.5386)"
           style="fill:#ffffff;fill-opacity:1;fill-rule:nonzero;stroke:#000031;stroke-width:1.13;stroke-linejoin:round;stroke-miterlimit:4;stroke-opacity:1;stroke-dashoffset:0"
           sodipodi:type="arc"
           sodipodi:ry="6"
           sodipodi:rx="5"
           sodipodi:cy="353"
           sodipodi:cx="688"
           id="path22227"
           d="m 693,353 c 0,3.31371 -2.23858,6 -5,6 -2.76142,0 -5,-2.68629 -5,-6 0,-3.31371 2.23858,-6 5,-6 2.76142,0 5,2.68629 5,6 z" />
        <g
           transform="matrix(0.524997,1.092076,-1.092076,0.524997,136.5717,-821.2136)"
           id="g26842">
          <path
             style="fill:#854c31;fill-opacity:1;fill-rule:nonzero;stroke:#000000;stroke-width:1.79999995;stroke-linejoin:round;stroke-miterlimit:4;stroke-opacity:1;stroke-dashoffset:0"
             sodipodi:nodetypes="ccccccccc"
             id="path20609"
             d="m 876.06839,255.71231 c -3.588,0 -6.5,3.808 -6.5,8.5 0,3.1526 1.36146,5.81381 3.3125,7.28125 -4.36185,8.71221 2.7114,27.4499 2.71139,58.20834 0,37.88364 -13.20382,69.625 -7.28125,69.625 5.92258,0 22.71875,-30.74136 22.71875,-68.625 0,-30.75844 -7.41204,-50.49613 -11.77389,-59.20834 1.95104,-1.46744 3.3125,-4.12865 3.3125,-7.28125 0,-4.692 -2.912,-8.5 -6.5,-8.5 z"
             inkscape:connector-curvature="0" />
          <path
             style="opacity:0.65968586;fill:#503b32;fill-opacity:1;fill-rule:nonzero;stroke:none"
             sodipodi:nodetypes="ccccc"
             id="path26067"
             d="m 886.54163,361.07474 c -0.0927,0.75331 -2.21345,0.10538 -4.8843,-0.22337 -2.67083,-0.32875 -4.88539,-0.21442 -4.79266,-0.96774 0.0927,-0.75332 2.33561,-1.09789 5.00646,-0.76914 2.67084,0.32873 4.76323,1.20693 4.6705,1.96025 z"
             inkscape:connector-curvature="0" />
          <path
             style="opacity:0.65968586;fill:#503b32;fill-opacity:1;fill-rule:nonzero;stroke:none"
             sodipodi:nodetypes="ccccc"
             id="path26070"
             d="m 887.49137,302.38706 c 0.15239,0.74354 -2.06424,0.80584 -4.70045,1.34611 -2.6362,0.54027 -4.69864,1.35494 -4.85102,0.61139 -0.15239,-0.74355 1.86347,-1.78548 4.49968,-2.32575 2.6362,-0.54028 4.89941,-0.3753 5.05179,0.36825 z"
             inkscape:connector-curvature="0" />
          <path
             style="opacity:0.65968586;fill:#503b32;fill-opacity:1;fill-rule:nonzero;stroke:none"
             sodipodi:nodetypes="ccccc"
             id="path26072"
             d="m 888.49137,311.13706 c 0.15239,0.74354 -2.06424,0.80584 -4.70045,1.34611 -2.6362,0.54027 -4.69864,1.35494 -4.85102,0.61139 -0.15239,-0.74355 1.86347,-1.78548 4.49968,-2.32575 2.6362,-0.54028 4.89941,-0.3753 5.05179,0.36825 z"
             inkscape:connector-curvature="0" />
          <path
             style="opacity:0.65968586;fill:#503b32;fill-opacity:1;fill-rule:nonzero;stroke:none"
             sodipodi:nodetypes="ccccc"
             id="path26074"
             d="m 889.24137,320.38706 c 0.15239,0.74354 -2.06424,0.80584 -4.70045,1.34611 -2.6362,0.54027 -4.69864,1.35494 -4.85102,0.61139 -0.15239,-0.74355 1.86347,-1.78548 4.49968,-2.32575 2.6362,-0.54028 4.89941,-0.3753 5.05179,0.36825 z"
             inkscape:connector-curvature="0" />
          <path
             style="opacity:0.65968586;fill:#503b32;fill-opacity:1;fill-rule:nonzero;stroke:none"
             sodipodi:nodetypes="ccccc"
             id="path26076"
             d="m 890.12166,330.2364 c -0.0133,0.75888 -2.19024,0.33664 -4.88082,0.28946 -2.69058,-0.0472 -4.88099,0.29848 -4.86767,-0.46041 0.0133,-0.75888 2.20776,-1.33649 4.89835,-1.28931 2.69058,0.0472 4.86345,0.70137 4.85014,1.46026 z"
             inkscape:connector-curvature="0" />
          <path
             style="opacity:0.65968586;fill:#503b32;fill-opacity:1;fill-rule:nonzero;stroke:none"
             sodipodi:nodetypes="ccccc"
             id="path26078"
             d="m 889.84167,340.20617 c -0.0261,0.75855 -2.1956,0.2997 -4.88501,0.20721 -2.6894,-0.0925 -4.88532,0.21621 -4.85923,-0.54234 0.0261,-0.75856 2.22997,-1.29912 4.91938,-1.20662 2.68941,0.0925 4.85095,0.78319 4.82486,1.54175 z"
             inkscape:connector-curvature="0" />
          <path
             style="opacity:0.65968586;fill:#503b32;fill-opacity:1;fill-rule:nonzero;stroke:none"
             sodipodi:nodetypes="ccccc"
             id="path26080"
             d="m 888.93793,351.5059 c -0.1186,0.74967 -2.21577,0.0291 -4.87372,-0.39139 -2.65793,-0.42051 -4.87511,-0.3825 -4.7565,-1.13217 0.11859,-0.74969 2.37202,-1.01683 5.02997,-0.59633 2.65794,0.4205 4.71885,1.37021 4.60025,2.11989 z"
             inkscape:connector-curvature="0" />
          <path
             style="fill:#f2e1d9;fill-opacity:0.0756757;fill-rule:nonzero;stroke:#000000;stroke-width:1.80687416;stroke-linejoin:round;stroke-miterlimit:4;stroke-opacity:0;stroke-dashoffset:0"
             sodipodi:nodetypes="cccccc"
             id="path26082"
             d="m 877.79711,272.3176 c -2.69197,8.71221 4.14548,26.90054 4.14547,57.65898 0,37.88364 -14.46651,65.77951 -10.81132,65.77951 3.6552,0 20.33878,-26.89587 20.33878,-64.77951 -3.02146,-29.93441 -8.96929,-49.6721 -11.66126,-58.38431 1.20411,-1.46744 -3.21578,-1.74211 -2.01167,-0.27467 z"
             inkscape:connector-curvature="0" />
        </g>
        <g
           transform="matrix(1.9845,0,0,1.9845,-1383.094,-669.1111)"
           id="g30852">
          <path
             style="fill:none;stroke:#000000;stroke-width:1px;stroke-linecap:butt;stroke-linejoin:miter;stroke-opacity:1"
             id="path28535"
             d="m 854.42251,471.52722 c 21.10507,-45.79493 44.08603,-41.03613 44.08603,-41.03613"
             inkscape:connector-curvature="0" />
          <path
             style="fill:none;stroke:#000000;stroke-width:1px;stroke-linecap:butt;stroke-linejoin:miter;stroke-opacity:1"
             id="path28537"
             d="m 854.98617,470.44461 c 43.11834,-37.29154 54.77195,-16.31505 54.77195,-16.31505"
             inkscape:connector-curvature="0" />
          <path
             transform="matrix(2.083333,0,0,2.083333,-1035.682,-420.5953)"
             style="fill:#080808;fill-opacity:0.32972975;fill-rule:nonzero;stroke:none"
             sodipodi:type="arc"
             sodipodi:ry="0.58268028"
             sodipodi:rx="0.58268028"
             sodipodi:cy="429.07431"
             sodipodi:cx="906.84473"
             id="path28540"
             d="m 907.42741,429.07431 c 0,0.32181 -0.26088,0.58268 -0.58268,0.58268 -0.32181,0 -0.58268,-0.26087 -0.58268,-0.58268 0,-0.32181 0.26087,-0.58268 0.58268,-0.58268 0.3218,0 0.58268,0.26087 0.58268,0.58268 z" />
          <path
             transform="matrix(2.083333,0,0,2.083333,-989.9416,-463.3252)"
             style="fill:#080808;fill-opacity:1;fill-rule:nonzero;stroke:none"
             sodipodi:type="arc"
             sodipodi:ry="0.58268028"
             sodipodi:rx="0.58268028"
             sodipodi:cy="429.07431"
             sodipodi:cx="906.84473"
             id="path29300"
             d="m 907.42741,429.07431 c 0,0.32181 -0.26088,0.58268 -0.58268,0.58268 -0.32181,0 -0.58268,-0.26087 -0.58268,-0.58268 0,-0.32181 0.26087,-0.58268 0.58268,-0.58268 0.3218,0 0.58268,0.26087 0.58268,0.58268 z" />
          <path
             transform="matrix(2.083333,0,0,2.083333,-979.162,-439.144)"
             style="fill:#080808;fill-opacity:1;fill-rule:nonzero;stroke:none"
             sodipodi:type="arc"
             sodipodi:ry="0.58268028"
             sodipodi:rx="0.58268028"
             sodipodi:cy="429.07431"
             sodipodi:cx="906.84473"
             id="path30060"
             d="m 907.42741,429.07431 c 0,0.32181 -0.26088,0.58268 -0.58268,0.58268 -0.32181,0 -0.58268,-0.26087 -0.58268,-0.58268 0,-0.32181 0.26087,-0.58268 0.58268,-0.58268 0.3218,0 0.58268,0.26087 0.58268,0.58268 z" />
        </g>
      </g>
    </g>
  </g>
</svg>
